# Blender v2.71 (sub 5) OBJ File: 'flag.blend'
# www.blender.org
mtllib flag.mtl
o Cube
v 0.215031 0.457024 0.063659
v 0.215031 0.005945 0.063659
v 0.223666 0.457024 0.020297
v 0.223666 0.005945 0.020297
v 0.223676 0.457024 -0.023916
v 0.223676 0.005945 -0.023916
v 0.215060 0.457024 -0.067282
v 0.215060 0.005945 -0.067282
v 0.198149 0.457024 -0.108134
v 0.198149 0.005945 -0.108134
v 0.198102 0.005945 0.104503
v 0.198102 0.457024 0.104503
v 0.173531 0.005945 0.141260
v 0.173531 0.457024 0.141260
v 0.142260 0.005945 0.172517
v 0.142260 0.457024 0.172517
v 0.105492 0.005945 0.197072
v 0.105492 0.457024 0.197072
v 0.064641 0.005945 0.213983
v 0.064641 0.457024 0.213983
v 0.021275 0.005945 0.222599
v 0.021275 0.457024 0.222599
v -0.022939 0.005945 0.222589
v -0.022939 0.457024 0.222589
v -0.066301 0.005945 0.213954
v -0.066301 0.457024 0.213954
v -0.107145 0.005945 0.197025
v -0.107145 0.457024 0.197025
v -0.143902 0.005945 0.172453
v -0.143902 0.457024 0.172453
v -0.175158 0.005945 0.141182
v -0.175158 0.457024 0.141182
v -0.199714 0.005945 0.104415
v -0.199714 0.457024 0.104415
v -0.216624 0.005945 0.063563
v -0.216624 0.457024 0.063563
v -0.225240 0.005945 0.020197
v -0.225240 0.457024 0.020197
v -0.225231 0.005945 -0.024016
v -0.225231 0.457024 -0.024016
v -0.216595 0.005945 -0.067378
v -0.216595 0.457024 -0.067378
v -0.199666 0.005945 -0.108222
v -0.199666 0.457024 -0.108222
v -0.175095 0.005945 -0.144979
v -0.175095 0.457024 -0.144979
v -0.143824 0.005945 -0.176236
v -0.143824 0.457024 -0.176236
v -0.107056 0.005945 -0.200791
v -0.107056 0.457024 -0.200791
v -0.066205 0.005945 -0.217702
v -0.066205 0.457024 -0.217702
v -0.022839 0.005945 -0.226318
v -0.022839 0.457024 -0.226318
v 0.021375 0.005945 -0.226308
v 0.021375 0.457024 -0.226308
v 0.064737 0.005945 -0.217673
v 0.064737 0.457024 -0.217673
v 0.105581 0.005945 -0.200744
v 0.105581 0.457024 -0.200744
v 0.142337 0.005945 -0.176172
v 0.142337 0.457024 -0.176172
v 0.173594 0.005945 -0.144901
v 0.173594 0.457024 -0.144901
v 0.215031 1.259282 0.063659
v 0.223666 1.259282 0.020297
v 0.223676 1.259282 -0.023916
v 0.215060 1.259282 -0.067282
v 0.198149 1.259282 -0.108134
v 0.198102 1.259282 0.104503
v 0.173531 1.259282 0.141260
v 0.142260 1.259282 0.172517
v 0.105492 1.259282 0.197072
v 0.064641 1.259282 0.213983
v 0.021275 1.259282 0.222599
v -0.022939 1.259282 0.222589
v -0.066301 1.259282 0.213954
v -0.107145 1.259282 0.197025
v -0.143902 1.259282 0.172453
v -0.175158 1.259282 0.141182
v -0.199714 1.259282 0.104415
v -0.216624 1.259282 0.063563
v -0.225240 2.156076 0.020197
v -0.225231 2.156076 -0.024016
v -0.216595 1.259282 -0.067378
v -0.199666 1.259282 -0.108222
v -0.175095 1.259282 -0.144979
v -0.143824 1.259282 -0.176236
v -0.107056 1.259282 -0.200791
v -0.066205 1.259282 -0.217702
v -0.022839 1.259282 -0.226318
v 0.021375 1.259282 -0.226308
v 0.064737 1.259282 -0.217673
v 0.105581 1.259282 -0.200744
v 0.142337 1.259282 -0.176172
v 0.173594 1.259282 -0.144901
v 0.215031 3.444612 0.063659
v 0.223666 3.444612 0.020297
v 0.223676 3.444612 -0.023916
v 0.215060 3.444612 -0.067282
v 0.198150 3.444612 -0.108134
v 0.198102 3.444612 0.104503
v 0.173531 3.444612 0.141260
v 0.142260 3.444612 0.172517
v 0.105492 3.444612 0.197072
v 0.064641 3.444612 0.213983
v 0.021275 3.444612 0.222599
v -0.022938 3.444612 0.222589
v -0.066301 3.444612 0.213954
v -0.107145 3.444612 0.197025
v -0.143901 3.444612 0.172453
v -0.175158 3.444612 0.141183
v -0.199714 3.444612 0.104415
v -0.216624 3.444612 0.063563
v -0.225240 3.444612 0.020198
v -0.225230 3.444612 -0.024016
v -0.216595 3.444612 -0.067378
v -0.199666 3.444612 -0.108222
v -0.175094 3.444612 -0.144979
v -0.143824 3.444612 -0.176235
v -0.107056 3.444612 -0.200791
v -0.066205 3.444612 -0.217702
v -0.022839 3.444612 -0.226318
v 0.021375 3.444612 -0.226308
v 0.064737 3.444612 -0.217672
v 0.105581 3.444612 -0.200744
v 0.142338 3.444612 -0.176172
v 0.173594 3.444612 -0.144901
v -2.199463 2.156076 0.019760
v -2.199453 2.156076 -0.024453
v -2.199463 3.444612 0.019760
v -2.199453 3.444612 -0.024453
vt 1.000000 0.131178
vt 0.999996 0.000000
vt 0.996444 0.131178
vt 0.989465 0.131178
vt 0.996444 0.000000
vt 0.989446 0.131178
vt 0.989446 0.000000
vt 0.979306 0.131178
vt 0.979306 0.000000
vt 0.966400 0.131178
vt 0.966400 0.000000
vt 0.951227 0.131178
vt 0.951227 0.000000
vt 0.934368 0.131178
vt 0.934368 0.000000
vt 0.916471 0.131178
vt 0.916471 0.000000
vt 0.898225 0.131178
vt 0.898225 0.000000
vt 0.880330 0.131178
vt 0.880330 0.000000
vt 0.863474 0.131178
vt 0.863474 0.000000
vt 0.848305 0.131178
vt 0.848305 0.000000
vt 0.835406 0.131178
vt 0.835406 0.000000
vt 0.825272 0.131178
vt 0.825272 0.000000
vt 0.818293 0.131178
vt 0.818293 0.000000
vt 0.814738 0.131178
vt 0.814738 0.000000
vt 0.880370 0.131178
vt 0.880370 0.000000
vt 0.898266 0.131178
vt 0.898266 0.000000
vt 0.951263 0.131178
vt 0.951263 0.000000
vt 0.989465 0.000000
vt 0.934408 0.364483
vt 0.951263 0.364483
vt 0.848337 0.364483
vt 0.848337 1.000000
vt 0.863511 1.000000
vt 0.818293 0.364483
vt 0.814738 0.625280
vt 0.979306 0.364483
vt 0.966400 0.364483
vt 0.989465 0.364483
vt 0.825292 0.364483
vt 0.916471 0.364483
vt 0.863511 0.364483
vt 0.996444 0.364483
vt 1.000000 0.364483
vt 0.880330 0.364483
vt 0.898266 0.364483
vt 0.989446 0.364483
vt 0.835406 0.364483
vt 0.951227 0.364483
vt 0.898225 0.364483
vt 0.880370 0.364483
vt 0.825292 1.000000
vt 0.814738 1.000000
vt 0.989446 1.000000
vt 0.996444 1.000000
vt 0.880330 1.000000
vt 0.835432 1.000000
vt 0.916472 1.000000
vt 0.898225 1.000000
vt 0.966433 1.000000
vt 0.979332 1.000000
vt 0.951227 1.000000
vt 0.934368 1.000000
vt 0.951264 1.000000
vt 0.818293 1.000000
vt 0.898266 1.000000
vt 0.989465 1.000000
vt 1.000000 1.000000
vt 0.000000 1.000000
vt 0.000000 0.625280
vt 0.880370 1.000000
vn 1.000000 0.000000 0.000200
vn 0.980800 0.000000 -0.194900
vn 0.924000 0.000000 -0.382500
vn 0.980700 0.000000 0.195300
vn 0.923800 0.000000 0.382900
vn 0.831300 0.000000 0.555800
vn 0.706900 0.000000 0.707300
vn 0.555400 0.000000 0.831600
vn 0.382500 0.000000 0.924000
vn 0.194900 0.000000 0.980800
vn -0.000200 0.000000 1.000000
vn -0.195300 0.000000 0.980700
vn -0.382900 0.000000 0.923800
vn -0.555800 0.000000 0.831300
vn -0.707300 0.000000 0.706900
vn -0.831600 0.000000 0.555400
vn -0.924000 0.000000 0.382500
vn -0.980800 0.000000 0.194900
vn -1.000000 0.000000 -0.000200
vn -0.980700 0.000000 -0.195300
vn -0.923800 0.000000 -0.382900
vn -0.831300 0.000000 -0.555800
vn -0.706900 0.000000 -0.707300
vn -0.555400 0.000000 -0.831600
vn -0.382500 0.000000 -0.924000
vn -0.194900 0.000000 -0.980800
vn 0.000200 0.000000 -1.000000
vn 0.195300 0.000000 -0.980700
vn 0.382900 0.000000 -0.923800
vn 0.555800 0.000000 -0.831300
vn 0.831600 0.000000 -0.555400
vn 0.000000 -1.000000 0.000000
vn 0.707300 0.000000 -0.707000
vn 0.000000 1.000000 0.000000
vn 0.000000 1.000000 0.000100
vn 0.000000 1.000000 -0.000100
usemtl Material
s off
f 5/1/1 3/1/1 4/2/1
f 7/3/2 5/1/2 6/2/2
f 9/4/3 7/3/3 8/5/3
f 3/1/4 1/3/4 2/5/4
f 1/3/5 12/6/5 11/7/5
f 12/6/6 14/8/6 13/9/6
f 14/8/7 16/10/7 15/11/7
f 16/10/8 18/12/8 17/13/8
f 18/12/9 20/14/9 19/15/9
f 20/14/10 22/16/10 21/17/10
f 22/16/11 24/18/11 23/19/11
f 24/18/12 26/20/12 25/21/12
f 26/20/13 28/22/13 27/23/13
f 28/22/14 30/24/14 29/25/14
f 30/24/15 32/26/15 31/27/15
f 32/26/16 34/28/16 33/29/16
f 34/28/17 36/30/17 35/31/17
f 36/30/18 38/32/18 37/33/18
f 38/32/19 40/32/19 39/33/19
f 40/32/20 42/30/20 41/31/20
f 41/31/21 42/30/21 44/28/21
f 44/28/22 46/26/22 45/27/22
f 46/26/23 48/24/23 47/25/23
f 47/25/24 48/24/24 50/22/24
f 50/22/25 52/34/25 51/35/25
f 52/34/26 54/36/26 53/37/26
f 54/36/27 56/16/27 55/17/27
f 56/16/28 58/14/28 57/15/28
f 58/14/29 60/38/29 59/39/29
f 60/38/30 62/10/30 61/11/30
f 64/8/31 9/4/31 10/40/31
f 27/23/32 61/11/32 11/7/32
f 62/10/33 64/8/33 63/9/33
f 58/14/29 93/41/29 94/42/29
f 88/43/24 120/44/24 121/45/24
f 36/30/18 82/46/18 83/47/18
f 14/8/7 71/48/7 72/49/7
f 64/8/31 96/48/31 69/50/31
f 42/30/21 85/46/21 86/51/21
f 20/14/10 74/41/10 75/52/10
f 48/24/24 88/43/24 89/53/24
f 7/3/2 68/54/2 67/55/2
f 26/20/13 77/56/13 78/53/13
f 54/36/27 91/57/27 92/52/27
f 1/3/5 65/54/5 70/58/5
f 32/26/16 80/59/16 81/51/16
f 60/38/30 94/42/30 95/49/30
f 38/32/19 83/47/19 84/47/19
f 16/10/8 72/49/8 73/60/8
f 44/28/22 86/51/22 87/59/22
f 22/16/11 75/52/11 76/61/11
f 50/22/25 89/53/25 90/62/25
f 9/4/3 69/50/3 68/54/3
f 28/22/14 78/53/14 79/43/14
f 56/16/28 92/52/28 93/41/28
f 34/28/17 81/51/17 82/46/17
f 12/6/6 70/58/6 71/48/6
f 62/10/33 95/49/33 96/48/33
f 42/30/20 40/32/20 84/47/20
f 18/12/9 73/60/9 74/41/9
f 46/26/23 87/59/23 88/43/23
f 5/1/1 67/55/1 66/55/1
f 26/20/12 24/18/12 76/61/12
f 52/34/26 90/62/26 91/57/26
f 3/1/4 66/55/4 65/54/4
f 30/24/15 79/43/15 80/59/15
f 118/63/34 115/64/34 102/65/34
f 67/55/2 68/54/2 100/66/2
f 77/56/13 109/67/13 110/45/13
f 86/51/22 118/63/22 119/68/22
f 75/52/11 107/69/11 108/70/11
f 95/49/33 127/71/33 128/72/33
f 85/46/20 84/47/20 116/64/20
f 73/60/9 105/73/9 106/74/9
f 93/41/29 125/74/29 126/75/29
f 82/46/18 114/76/18 115/64/18
f 71/48/7 103/72/7 104/71/7
f 91/57/27 123/77/27 124/69/27
f 65/54/5 97/66/5 102/65/5
f 80/59/16 112/68/16 113/63/16
f 90/62/25 89/53/25 121/45/25
f 69/50/3 101/78/3 100/66/3
f 78/53/14 110/45/14 111/44/14
f 87/59/23 119/68/23 120/44/23
f 67/55/1 99/79/1 98/79/1
f 76/61/12 108/70/12 109/67/12
f 96/48/31 128/72/31 101/78/31
f 86/51/21 85/46/21 117/76/21
f 75/52/10 74/41/10 106/74/10
f 94/42/30 126/75/30 127/71/30
f 115/64/11 131/80/11 129/81/11
f 72/49/8 104/71/8 105/73/8
f 92/52/28 124/69/28 125/74/28
f 81/51/17 113/63/17 114/76/17
f 70/58/6 102/65/6 103/72/6
f 90/62/26 122/82/26 123/77/26
f 66/55/4 98/79/4 97/66/4
f 79/43/15 111/44/15 112/68/15
f 129/81/19 131/80/19 132/80/19
f 116/64/27 84/47/27 130/81/27
f 116/64/34 132/80/34 131/80/34
f 83/47/32 129/81/32 130/81/32
f 6/2/1 5/1/1 4/2/1
f 8/5/2 7/3/2 6/2/2
f 10/40/3 9/4/3 8/5/3
f 4/2/4 3/1/4 2/5/4
f 2/5/5 1/3/5 11/7/5
f 11/7/6 12/6/6 13/9/6
f 13/9/7 14/8/7 15/11/7
f 15/11/8 16/10/8 17/13/8
f 17/13/9 18/12/9 19/15/9
f 19/15/10 20/14/10 21/17/10
f 21/17/11 22/16/11 23/19/11
f 23/19/12 24/18/12 25/21/12
f 25/21/13 26/20/13 27/23/13
f 27/23/14 28/22/14 29/25/14
f 29/25/15 30/24/15 31/27/15
f 31/27/16 32/26/16 33/29/16
f 33/29/17 34/28/17 35/31/17
f 35/31/18 36/30/18 37/33/18
f 37/33/19 38/32/19 39/33/19
f 39/33/20 40/32/20 41/31/20
f 43/29/21 41/31/21 44/28/21
f 43/29/22 44/28/22 45/27/22
f 45/27/23 46/26/23 47/25/23
f 49/23/24 47/25/24 50/22/24
f 49/23/25 50/22/25 51/35/25
f 51/35/26 52/34/26 53/37/26
f 53/37/27 54/36/27 55/17/27
f 55/17/28 56/16/28 57/15/28
f 57/15/29 58/14/29 59/39/29
f 59/39/30 60/38/30 61/11/30
f 63/9/31 64/8/31 10/40/31
f 4/2/32 10/40/32 6/2/32
f 11/7/32 10/40/32 2/5/32
f 11/7/32 13/9/32 15/11/32
f 15/11/32 17/13/32 19/15/32
f 19/15/32 21/17/32 23/19/32
f 23/19/32 25/21/32 27/23/32
f 27/23/32 29/25/32 31/27/32
f 61/11/32 51/35/32 53/37/32
f 10/40/32 4/2/32 2/5/32
f 43/29/32 37/33/32 41/31/32
f 43/29/32 45/27/32 47/25/32
f 47/25/32 49/23/32 51/35/32
f 55/17/32 61/11/32 53/37/32
f 59/39/32 61/11/32 57/15/32
f 37/33/32 39/33/32 41/31/32
f 10/40/32 8/5/32 6/2/32
f 60/38/29 58/14/29 94/42/29
f 11/7/32 15/11/32 19/15/32
f 19/15/32 23/19/32 27/23/32
f 61/11/32 55/17/32 57/15/32
f 37/33/32 43/29/32 33/29/32
f 43/29/32 47/25/32 51/35/32
f 35/31/32 37/33/32 33/29/32
f 11/7/32 61/11/32 10/40/32
f 19/15/32 27/23/32 11/7/32
f 27/23/32 33/29/32 43/29/32
f 51/35/32 27/23/32 43/29/32
f 27/23/32 31/27/32 33/29/32
f 61/11/33 62/10/33 63/9/33
f 61/11/32 27/23/32 51/35/32
f 61/11/32 63/9/32 10/40/32
f 89/53/24 88/43/24 121/45/24
f 38/32/18 36/30/18 83/47/18
f 16/10/7 14/8/7 72/49/7
f 9/4/31 64/8/31 69/50/31
f 44/28/21 42/30/21 86/51/21
f 22/16/10 20/14/10 75/52/10
f 50/22/24 48/24/24 89/53/24
f 5/1/2 7/3/2 67/55/2
f 28/22/13 26/20/13 78/53/13
f 56/16/27 54/36/27 92/52/27
f 12/6/5 1/3/5 70/58/5
f 34/28/16 32/26/16 81/51/16
f 62/10/30 60/38/30 95/49/30
f 40/32/19 38/32/19 84/47/19
f 18/12/8 16/10/8 73/60/8
f 46/26/22 44/28/22 87/59/22
f 24/18/11 22/16/11 76/61/11
f 52/34/25 50/22/25 90/62/25
f 7/3/3 9/4/3 68/54/3
f 30/24/14 28/22/14 79/43/14
f 58/14/28 56/16/28 93/41/28
f 36/30/17 34/28/17 82/46/17
f 14/8/6 12/6/6 71/48/6
f 64/8/33 62/10/33 96/48/33
f 85/46/20 42/30/20 84/47/20
f 20/14/9 18/12/9 74/41/9
f 48/24/23 46/26/23 88/43/23
f 3/1/1 5/1/1 66/55/1
f 77/56/12 26/20/12 76/61/12
f 54/36/26 52/34/26 91/57/26
f 1/3/4 3/1/4 65/54/4
f 32/26/15 30/24/15 80/59/15
f 100/66/34 101/78/34 99/79/34
f 128/72/35 127/71/35 101/78/35
f 127/71/34 120/44/34 118/63/34
f 124/69/36 127/71/36 125/74/36
f 115/64/34 113/63/34 108/70/34
f 122/82/35 121/45/35 120/44/35
f 120/44/34 119/68/34 118/63/34
f 116/64/34 115/64/34 117/76/34
f 114/76/34 113/63/34 115/64/34
f 108/70/34 104/71/34 102/65/34
f 112/68/34 111/44/34 110/45/34
f 110/45/35 109/67/35 108/70/35
f 108/70/34 107/69/34 106/74/34
f 106/74/34 105/73/34 104/71/34
f 104/71/34 103/72/34 102/65/34
f 102/65/34 97/66/34 98/79/34
f 127/71/35 126/75/35 125/74/35
f 113/63/34 112/68/34 110/45/34
f 127/71/34 123/77/34 120/44/34
f 78/53/13 77/56/13 110/45/13
f 115/64/34 108/70/34 102/65/34
f 108/70/34 113/63/34 110/45/34
f 108/70/34 106/74/34 104/71/34
f 123/77/34 122/82/34 120/44/34
f 101/78/34 98/79/34 99/79/34
f 102/65/34 98/79/34 101/78/34
f 127/71/34 118/63/34 102/65/34
f 127/71/34 124/69/34 123/77/34
f 99/79/2 67/55/2 100/66/2
f 115/64/34 118/63/34 117/76/34
f 127/71/34 102/65/34 101/78/34
f 87/59/22 86/51/22 119/68/22
f 76/61/11 75/52/11 108/70/11
f 96/48/33 95/49/33 128/72/33
f 117/76/20 85/46/20 116/64/20
f 74/41/9 73/60/9 106/74/9
f 94/42/29 93/41/29 126/75/29
f 83/47/18 82/46/18 115/64/18
f 72/49/7 71/48/7 104/71/7
f 92/52/27 91/57/27 124/69/27
f 70/58/5 65/54/5 102/65/5
f 81/51/16 80/59/16 113/63/16
f 122/82/25 90/62/25 121/45/25
f 68/54/3 69/50/3 100/66/3
f 79/43/14 78/53/14 111/44/14
f 88/43/23 87/59/23 120/44/23
f 66/55/1 67/55/1 98/79/1
f 77/56/12 76/61/12 109/67/12
f 69/50/31 96/48/31 101/78/31
f 118/63/21 86/51/21 117/76/21
f 107/69/10 75/52/10 106/74/10
f 95/49/30 94/42/30 127/71/30
f 83/47/11 115/64/11 129/81/11
f 73/60/8 72/49/8 105/73/8
f 93/41/28 92/52/28 125/74/28
f 82/46/17 81/51/17 114/76/17
f 71/48/6 70/58/6 103/72/6
f 91/57/26 90/62/26 123/77/26
f 65/54/4 66/55/4 97/66/4
f 80/59/15 79/43/15 112/68/15
f 130/81/19 129/81/19 132/80/19
f 132/80/27 116/64/27 130/81/27
f 115/64/34 116/64/34 131/80/34
f 84/47/32 83/47/32 130/81/32
